<mxfile host="app.diagrams.net" modified="2021-12-27T00:39:53.104Z" agent="5.0 (Windows NT 10.0; Win64; x64) AppleWebKit/537.36 (KHTML, like Gecko) Chrome/96.0.4664.110 Safari/537.36" etag="ut_nucYFR6SInJzg2oxj" version="16.1.0" type="github">
  <diagram id="8VwZFZ9zexfBooK9MFbY" name="Defi-Building-Blocks">
    <mxGraphModel dx="1354" dy="752" grid="1" gridSize="10" guides="1" tooltips="1" connect="1" arrows="1" fold="1" page="1" pageScale="1" pageWidth="1100" pageHeight="850" math="0" shadow="0">
      <root>
        <mxCell id="0" />
        <mxCell id="1" parent="0" />
        <mxCell id="vzfJL-W1l42EQh61Vusk-14" value="" style="rounded=0;whiteSpace=wrap;html=1;" vertex="1" parent="1">
          <mxGeometry x="230" y="490" width="180" height="90" as="geometry" />
        </mxCell>
        <mxCell id="vzfJL-W1l42EQh61Vusk-1" value="" style="rounded=0;whiteSpace=wrap;html=1;" vertex="1" parent="1">
          <mxGeometry x="40" y="690" width="560" height="70" as="geometry" />
        </mxCell>
        <mxCell id="vzfJL-W1l42EQh61Vusk-2" value="" style="rounded=0;whiteSpace=wrap;html=1;" vertex="1" parent="1">
          <mxGeometry x="40" y="590" width="370" height="90" as="geometry" />
        </mxCell>
        <mxCell id="vzfJL-W1l42EQh61Vusk-3" value="" style="rounded=0;whiteSpace=wrap;html=1;" vertex="1" parent="1">
          <mxGeometry x="420" y="590" width="180" height="90" as="geometry" />
        </mxCell>
        <mxCell id="vzfJL-W1l42EQh61Vusk-4" value="" style="rounded=0;whiteSpace=wrap;html=1;" vertex="1" parent="1">
          <mxGeometry x="40" y="490" width="180" height="90" as="geometry" />
        </mxCell>
        <mxCell id="vzfJL-W1l42EQh61Vusk-5" value="" style="rounded=0;whiteSpace=wrap;html=1;" vertex="1" parent="1">
          <mxGeometry x="40" y="360" width="270" height="120" as="geometry" />
        </mxCell>
        <mxCell id="vzfJL-W1l42EQh61Vusk-6" value="" style="rounded=0;whiteSpace=wrap;html=1;fillColor=#f5f5f5;fontColor=#333333;strokeColor=none;" vertex="1" parent="1">
          <mxGeometry width="1100" height="120" as="geometry" />
        </mxCell>
        <mxCell id="vzfJL-W1l42EQh61Vusk-7" value="&lt;h1&gt;Heading&lt;/h1&gt;&lt;p&gt;Lorem ipsum dolor sit amet, consectetur adipisicing elit, sed do eiusmod tempor incididunt ut labore et dolore magna aliqua.&lt;/p&gt;" style="text;html=1;strokeColor=none;fillColor=none;spacing=5;spacingTop=-20;whiteSpace=wrap;overflow=hidden;rounded=0;" vertex="1" parent="1">
          <mxGeometry x="790" y="170" width="280" height="630" as="geometry" />
        </mxCell>
        <mxCell id="vzfJL-W1l42EQh61Vusk-9" value="Title Goes Here" style="text;html=1;strokeColor=none;fillColor=none;align=left;verticalAlign=middle;whiteSpace=wrap;rounded=0;fontSize=42;" vertex="1" parent="1">
          <mxGeometry x="40" y="40" width="350" height="30" as="geometry" />
        </mxCell>
        <mxCell id="vzfJL-W1l42EQh61Vusk-10" value="Layer 1" style="text;html=1;strokeColor=none;fillColor=none;align=left;verticalAlign=middle;whiteSpace=wrap;rounded=0;fontSize=12;spacingLeft=8;" vertex="1" parent="1">
          <mxGeometry x="40" y="730" width="80" height="30" as="geometry" />
        </mxCell>
        <mxCell id="vzfJL-W1l42EQh61Vusk-11" value="Order Book" style="text;html=1;strokeColor=none;fillColor=none;align=left;verticalAlign=middle;whiteSpace=wrap;rounded=0;fontSize=12;spacingLeft=8;" vertex="1" parent="1">
          <mxGeometry x="40" y="650" width="120" height="30" as="geometry" />
        </mxCell>
        <mxCell id="vzfJL-W1l42EQh61Vusk-12" value="Oracle" style="text;html=1;strokeColor=none;fillColor=none;align=left;verticalAlign=middle;whiteSpace=wrap;rounded=0;fontSize=12;spacingLeft=8;" vertex="1" parent="1">
          <mxGeometry x="420" y="650" width="80" height="30" as="geometry" />
        </mxCell>
        <mxCell id="vzfJL-W1l42EQh61Vusk-13" value="Lending" style="text;html=1;strokeColor=none;fillColor=none;align=left;verticalAlign=middle;whiteSpace=wrap;rounded=0;fontSize=12;spacingLeft=8;" vertex="1" parent="1">
          <mxGeometry x="230" y="550" width="80" height="30" as="geometry" />
        </mxCell>
        <mxCell id="vzfJL-W1l42EQh61Vusk-15" value="" style="rounded=0;whiteSpace=wrap;html=1;" vertex="1" parent="1">
          <mxGeometry x="420" y="490" width="180" height="90" as="geometry" />
        </mxCell>
        <mxCell id="vzfJL-W1l42EQh61Vusk-16" value="AMM" style="text;html=1;strokeColor=none;fillColor=none;align=left;verticalAlign=middle;whiteSpace=wrap;rounded=0;fontSize=12;spacingLeft=8;" vertex="1" parent="1">
          <mxGeometry x="40" y="550" width="80" height="30" as="geometry" />
        </mxCell>
        <mxCell id="vzfJL-W1l42EQh61Vusk-17" value="StableSwap" style="text;html=1;strokeColor=none;fillColor=none;align=left;verticalAlign=middle;whiteSpace=wrap;rounded=0;fontSize=12;spacingLeft=8;" vertex="1" parent="1">
          <mxGeometry x="420" y="550" width="80" height="30" as="geometry" />
        </mxCell>
        <mxCell id="vzfJL-W1l42EQh61Vusk-18" value="" style="rounded=0;whiteSpace=wrap;html=1;" vertex="1" parent="1">
          <mxGeometry x="330" y="360" width="270" height="120" as="geometry" />
        </mxCell>
        <mxCell id="vzfJL-W1l42EQh61Vusk-19" value="Asset Mgmt" style="text;html=1;strokeColor=none;fillColor=none;align=left;verticalAlign=middle;whiteSpace=wrap;rounded=0;fontSize=12;spacingLeft=8;" vertex="1" parent="1">
          <mxGeometry x="40" y="450" width="80" height="30" as="geometry" />
        </mxCell>
        <mxCell id="vzfJL-W1l42EQh61Vusk-20" value="Derivatives" style="text;html=1;strokeColor=none;fillColor=none;align=left;verticalAlign=middle;whiteSpace=wrap;rounded=0;fontSize=12;spacingLeft=8;" vertex="1" parent="1">
          <mxGeometry x="330" y="450" width="80" height="30" as="geometry" />
        </mxCell>
      </root>
    </mxGraphModel>
  </diagram>
</mxfile>
